# AST/ASF file generated using VICON BodyLanguage
# -----------------------------------------------
:version 1.10
:name VICON
:units
  mass 1.0
  length 0.45
  angle deg
:documentation
   .ast/.asf automatically generated from VICON data using
   VICON BodyBuilder and BodyLanguage model FoxedUp or BRILLIANT.MOD
:root
   order TX TY TZ RX RY RZ
   axis XYZ
   position 0 0 0  
   orientation 0 0 0 
:bonedata
  begin
     id 1 
     name lhipjoint
     direction 0.611804 -0.747784 0.257906 
     length 2.29243 
     axis 0 0 0  XYZ
  end
  begin
     id 2 
     name lfemur
     direction 0.34202 -0.939693 0  
     length 7.31159  
     axis 0 0 20  XYZ
    dof rx ry rz
    limits (-160.0 20.0)
           (-70.0 70.0)
           (-60.0 70.0)
  end
  begin
     id 3 
     name ltibia
     direction 0.34202 -0.939693 0   
     length 7.33391   
     axis 0 0 20   XYZ
    dof rx
    limits (-10.0 170.0)
  end
  begin
     id 4 
     name lfoot
     direction 0.122263 -0.335914 0.933924   
     length 1.76083   
     axis -90 7.62852e-016 20   XYZ
    dof rx rz
    limits (-45.0 90.0)
           (-70.0 20.0)
  end
  begin
     id 5 
     name ltoes
     direction 1.53533e-011 -4.2177e-011 1   
     length 0.879206   
     axis -90 7.62852e-016 20   XYZ
    dof rx
    limits (-90.0 20.0)
  end
  begin
     id 6 
     name rhipjoint
     direction -0.646469 -0.721248 0.248754   
     length 2.37677  
     axis 0 0 0  XYZ 
  end
  begin
     id 7 
     name rfemur
     direction -0.34202 -0.939693 0   
     length 7.18623   
     axis 0 0 -20   XYZ
    dof rx ry rz
    limits (-160.0 20.0)
           (-70.0 70.0)
           (-70.0 60.0)
  end
  begin
     id 8 
     name rtibia
     direction -0.34202 -0.939693 0   
     length 7.36567   
     axis 0 0 -20   XYZ
    dof rx
    limits (-10.0 170.0)
 end
 begin
     id 9 
     name rfoot
     direction -0.126681 -0.348054 0.928876   
     length 1.71902  
     axis -90 -7.62852e-016 -20   XYZ
    dof rx rz
    limits (-45.0 90.0)
           (-20.0 70.0)
  end
  begin
     id 10 
     name rtoes
     direction -1.53551e-011 -4.21898e-011 1   
     length 0.857792   
     axis -90 -7.62852e-016 -20   XYZ
    dof rx
    limits (-90.0 20.0)
  end
  begin
     id 11 
     name lowerback
     direction 0.0106509 0.999778 0.0181844   
     length 2.07668   
     axis 0 0 0   XYZ
    dof rx ry rz
    limits (-20.0 45.0)
           (-30.0 30.0)
           (-30.0 30.0)
  end
  begin
     id 12 
     name upperback
     direction -0.00456018 0.999989 -0.000590935   
     length 2.08011   
     axis 0 0 0   XYZ
    dof rx ry rz
    limits (-20.0 45.0)
           (-30.0 30.0)
           (-30.0 30.0)
  end
  begin
     id 13 
     name thorax
     direction -0.00910382 0.999916 -0.00923765   
     length 2.07397   
     axis 0 0 0   XYZ
    dof rx ry rz
    limits (-20.0 45.0)
           (-30.0 30.0)
           (-30.0 30.0)
  end
  begin
     id 14 
     name lowerneck
     direction 0.00171967 0.99778 0.0665733   
     length 1.67556   
     axis 0 0 0   XYZ
    dof rx ry rz
    limits (-20.0 45.0)
           (-30.0 30.0)
           (-30.0 30.0)
  end
  begin
     id 15 
     name upperneck
     direction -0.0143166 0.991302 -0.130828   
     length 1.68462   
     axis 0 0 0   XYZ
    dof rx ry rz
    limits (-20.0 45.0)
           (-30.0 30.0)
           (-30.0 30.0)
  end
  begin
     id 16
     name head
     direction -0.00606378 0.998665 -0.0512995  
     length 1.69269  
     axis 0 0 0   XYZ
    dof rx ry rz
    limits (-20.0 45.0)
           (-30.0 30.0)
           (-30.0 30.0)
  end
  begin
     id 17 
     name lclavicle
     direction 0.9638 0.179341 0.197297  
     length 4.12888  
     axis 0 0 0   XYZ
    dof ry rz
    limits (-20.0 10.0)
           (0.0 20.0)
  end
  begin
     id 18 
     name lhumerus
     direction 1 -4.48972e-011 -2.47351e-027   
     length 5.01834   
     axis -180 -30 -90   XYZ
    dof rx ry rz
    limits (-60.0 90.0)
           (-90.0 90.0)
           (-90.0 90.0)
  end
  begin
     id 19
     name lradius
     direction 1 -4.48965e-011 1.51591e-026   
     length 3.4869   
     axis -180 -30 -90   XYZ
    dof rx
    limits (-10.0 170.0)
  end
  begin
     id 20
     name lwrist
     direction 1 -4.48957e-011 2.70032e-026   
     length 1.74345   
     axis -1.81515e-014 90 90   XYZ
    dof ry
    limits (-180.0 0.0)
 end
  begin
     id 21 
     name lhand
     direction 1 -4.48951e-011 5.40064e-026   
     length 0.76799   
     axis -3.44607e-014 90 90   XYZ
    dof rx rz
    limits (-90.0 90.0)
           (-45.0 45.0)
  end
  begin
     id 22 
     name lfingers
     direction 1 -4.48971e-011 1.08013e-025   
     length 0.619174   
     axis -6.89214e-014 90 90   XYZ
    dof rx
    limits (0.0 90.0)
  end
  begin
     id 23
     name lthumb
     direction 0.707107 -6.34931e-011 0.707107   
     length 0.889013   
     axis -90 45 2.85299e-015   XYZ
    dof rx rz
    limits (-45.0 45.0)
           (-45.0 45.0)
  end
  begin
     id 24 
     name rclavicle
     direction -0.961409 0.252588 0.109054   
     length 4.04305  
     axis 0 0 0   XYZ 
    dof ry rz
    limits (-10.0 20.0)
           (-20.0 0.0)
  end
  begin
     id 25 
     name rhumerus
     direction -1 -4.4897e-011 1.33872e-017  
     length 4.70164   
     axis -180 30 90   XYZ
    dof rx ry rz
    limits (-90.0 60.0)
           (-90.0 90.0)
           (-90.0 90.0)
  end
  begin
     id 26 
     name rradius
     direction -1 -4.48954e-011 1.83844e-026   
     length 3.49911   
     axis -180 30 90   XYZ
    dof rx
    limits (-10.0 170.0)
  end
  begin
     id 27 
     name rwrist
     direction -1 -4.49008e-011 2.70032e-026   
     length 1.74955   
     axis -1.81515e-014 -90 -90   XYZ
    dof ry
    limits (-180.0 0.0)
  end
  begin
     id 28
     name rhand
     direction -1 -4.48916e-011 5.40064e-026   
     length 0.739335   
     axis -3.44607e-014 -90 -90   XYZ
    dof rx rz
    limits (-90.0 90.0)
           (-45.0 45.0)
  end
  begin
     id 29
     name rfingers
     direction -1 -4.48987e-011 1.08013e-025   
     length 0.596071   
     axis -6.89214e-014 -90 -90   XYZ
    dof rx
    limits (0.0 90.0)
  end
  begin
     id 30
     name rthumb
     direction -0.707107 -6.34935e-011 0.707107   
     length 0.855843   
     axis -90 -45 -2.85299e-015   XYZ
    dof rx rz
    limits (-45.0 45.0)
           (-45.0 45.0)
  end
:hierarchy
  begin
    root lhipjoint rhipjoint lowerback
    lhipjoint lfemur
    lfemur ltibia
    ltibia lfoot
    lfoot ltoes
    rhipjoint rfemur
    rfemur rtibia
    rtibia rfoot
    rfoot rtoes
    lowerback upperback
    upperback thorax
    thorax lowerneck lclavicle rclavicle
    lowerneck upperneck
    upperneck head
    lclavicle lhumerus
    lhumerus lradius
    lradius lwrist
    lwrist lhand lthumb
    lhand lfingers
    rclavicle rhumerus
    rhumerus rradius
    rradius rwrist
    rwrist rhand rthumb
    rhand rfingers
  end

#!OML:ASF I:\salsa\salsa 7_09\Patient 1\Session 1\dancermale.ASF
:FULLY-SPECIFIED
:DEGREES
1127
root 8.18543 17.2833 12.7138 365.625 -433.598 -351.059
lowerback -15.4301 -2.58931 -5.44012
upperback 2.57211 -2.8244 3.5681
thorax 12.0432 -1.88457 6.33505
lowerneck -6.37026 2.68563 1.83789
upperneck 20.7097 4.33754 -6.3424
head 7.58086 1.50325 -2.04259
rclavicle -5.725e-014 2.8625e-014
rhumerus -57.9144 -35.8277 -64.9152
rradius 113.767
rwrist -26.3476
rhand -68.6956 16.9201
rfingers 7.12502
rthumb -40.3836 351.811
lclavicle -5.725e-014 2.8625e-014
lhumerus -52.7084 -8.78567 109.295
lradius 120.017
lwrist 30.6333
lhand -51.7131 77.8726
lfingers 7.12502
lthumb -24.2325 -106.361
rfemur -25.3124 1.1005 21.975
rtibia 10.3732
rfoot -16.7246 -37.5889
rtoes 38.255
lfemur -209.446 162.848 -189.658
ltibia 59.854
lfoot -0.93986 3.40274
ltoes 66.5144
1128
root 8.37693 17.2991 12.8391 366.307 -432.32 -351.787
lowerback -15.8868 -2.56088 -5.18441
upperback 2.57688 -2.84809 3.78653
thorax 12.3213 -1.89868 6.42302
lowerneck -6.47575 2.28025 1.34912
upperneck 20.691 3.82168 -6.18477
head 7.55862 1.23574 -1.95099
rclavicle 6.26172e-014 -2.06736e-014
rhumerus -57.2982 -35.2692 -65.8844
rradius 114.854
rwrist -26.1964
rhand -69.3123 20.1183
rfingers 7.12502
rthumb -40.9633 355.19
lclavicle 6.26172e-014 -2.06736e-014
lhumerus -53.1975 -8.25848 109.13
lradius 120.285
lwrist 30.3368
lhand -51.915 76.0808
lfingers 7.12502
lthumb -24.426 -104.544
rfemur -25.8438 1.19899 21.0699
rtibia 10.7027
rfoot -17.0511 -37.9046
rtoes 39.2579
lfemur -206.441 165.133 -189.854
ltibia 54.317
lfoot -1.7756 0.553615
ltoes 66.9458
1129
root 8.5957 17.3089 12.9546 366.817 -431.12 -352.571
lowerback -15.804 -2.52868 -4.86873
upperback 2.60813 -2.90452 4.02082
thorax 12.3136 -1.91705 6.49131
lowerneck -6.56173 1.9602 0.880011
upperneck 20.6025 3.43171 -6.09061
head 7.52015 1.0263 -1.87217
rclavicle -2.40529e-014 3.65764e-014
rhumerus -56.7531 -34.5172 -66.8559
rradius 115.847
rwrist -25.739
rhand -69.6516 22.5584
rfingers 7.12502
rthumb -41.2818 357.732
lclavicle -2.40529e-014 3.65764e-014
lhumerus -53.6394 -7.71815 108.942
lradius 120.628
lwrist 30.0826
lhand -52.1442 75.6311
lfingers 7.12502
lthumb -24.6458 -104.064
rfemur -26.7644 0.780842 20.3244
rtibia 11.9986
rfoot -17.1039 -37.2249
rtoes 40.0012
lfemur -203.847 167.828 -189.98
ltibia 49.5114
lfoot -2.54748 -2.49357
ltoes 66.7364
1130
root 8.83459 17.3134 13.0535 366.873 -430.11 -353.064
lowerback -15.2766 -2.41307 -4.62132
upperback 2.64016 -2.83726 4.17622
thorax 12.0224 -1.86924 6.54674
lowerneck -6.60406 1.65882 0.530345
upperneck 20.5669 3.04883 -5.98408
head 7.49522 0.829352 -1.80964
rclavicle -5.1684e-015 3.18055e-015
rhumerus -56.4532 -33.7989 -67.7467
rradius 116.795
rwrist -25.0412
rhand -69.7214 24.9406
rfingers 7.12502
rthumb -41.3473 360.136
lclavicle -5.1684e-015 3.18055e-015
lhumerus -54.0648 -7.21011 108.577
lradius 120.942
lwrist 29.5377
lhand -51.6274 74.7787
lfingers 7.12502
lthumb -24.1503 -103.279
rfemur -28.1392 0.277978 19.5598
rtibia 14.3469
rfoot -16.0088 -35.7581
rtoes 40.0783
lfemur -201.657 170.887 -190.162
ltibia 45.4269
lfoot -3.74925 -5.53498
ltoes 65.7484
1131
root 9.07402 17.3113 13.1386 366.486 -429.301 -353.131
lowerback -14.7401 -2.25362 -4.56159
upperback 2.71223 -2.66254 4.25871
thorax 11.761 -1.78166 6.65575
lowerneck -6.67394 1.34222 0.305102
upperneck 20.5372 2.64545 -5.96265
head 7.48075 0.624083 -1.79768
rclavicle -4.37326e-014 3.02153e-014
rhumerus -56.1573 -33.0966 -68.7057
rradius 117.652
rwrist -23.8569
rhand -70.0206 27.2934
rfingers 7.12502
rthumb -41.6281 362.58
lclavicle -4.37326e-014 3.02153e-014
lhumerus -54.4774 -6.80615 108.173
lradius 121.335
lwrist 29.1184
lhand -51.2557 73.8744
lfingers 7.12502
lthumb -23.7938 -102.421
rfemur -30.0249 -0.707101 18.9491
rtibia 17.7988
rfoot -13.9862 -32.8414
rtoes 38.9697
lfemur -199.927 173.923 -190.552
ltibia 42.156
lfoot -5.52053 -7.92945
ltoes 64.4962
1132
root 9.30431 17.3038 13.2088 365.738 -428.69 -352.734
lowerback -14.371 -2.13598 -4.7976
upperback 2.80917 -2.48114 4.32681
thorax 11.641 -1.71539 6.91987
lowerneck -6.94123 1.09592 0.062296
upperneck 20.6255 2.35903 -5.97881
head 7.54647 0.463389 -1.78626
rclavicle 1.23246e-014 0
rhumerus -55.7546 -32.2565 -69.7454
rradius 118.318
rwrist -22.3297
rhand -70.4003 30.8392
rfingers 7.12502
rthumb -41.9841 366.244
lclavicle 1.23246e-014 0
lhumerus -54.8292 -6.37033 107.768
lradius 121.796
lwrist 28.846
lhand -51.1425 72.9564
lfingers 7.12502
lthumb -23.6853 -101.517
rfemur -32.3055 -1.52521 18.3085
rtibia 21.9219
rfoot -11.8244 -28.9177
rtoes 36.2687
lfemur -198.738 176.838 -191.143
ltibia 39.7079
lfoot -8.09275 -9.70477
ltoes 62.5607
1133
root 9.52859 17.2922 13.2615 365.048 -428.287 -352.228
lowerback -14.1459 -2.00476 -5.13633
upperback 2.85571 -2.25326 4.35759
thorax 11.542 -1.63068 7.21097
lowerneck -7.17405 0.957745 -0.302247
upperneck 20.7037 2.18432 -5.7079
head 7.60311 0.373889 -1.65058
rclavicle 2.78299e-015 -3.81667e-014
rhumerus -55.3571 -31.4012 -70.7702
rradius 118.692
rwrist -20.4323
rhand -70.427 35.1508
rfingers 7.12502
rthumb -42.0091 370.564
lclavicle 2.78299e-015 -3.81667e-014
lhumerus -55.1518 -5.9183 107.32
lradius 122.198
lwrist 28.5902
lhand -50.8419 71.2661
lfingers 7.12502
lthumb -23.3969 -99.8639
rfemur -35.2177 -2.48346 18.0727
rtibia 27.1496
rfoot -9.7999 -24.5501
rtoes 29.6557
lfemur -197.794 178.622 -191.644
ltibia 37.5034
lfoot -10.5513 -11.1695
ltoes 60.201
1134
root 9.74346 17.2748 13.2981 364.825 -427.982 -352.094
lowerback -14.0776 -1.86723 -5.41401
upperback 2.86279 -2.02418 4.39698
thorax 11.4851 -1.54142 7.47513
lowerneck -7.37897 0.827104 -0.690535
upperneck 20.7757 1.99707 -5.30292
head 7.6518 0.289852 -1.468
rclavicle -4.69132e-014 3.65764e-014
rhumerus -54.9328 -30.6126 -71.6942
rradius 118.871
rwrist -18.3578
rhand -70.4197 37.9678
rfingers 7.12502
rthumb -42.0023 373.379
lclavicle -4.69132e-014 3.65764e-014
lhumerus -55.5216 -5.48045 106.84
lradius 122.595
lwrist 28.3439
lhand -50.6787 70.2171
lfingers 7.12502
lthumb -23.2404 -98.8348
rfemur -38.3307 -3.5714 18.4494
rtibia 32.8002
rfoot -9.04861 -19.9636
rtoes 22.2928
lfemur -197.047 179.239 -191.801
ltibia 35.4732
lfoot -12.0498 -12.8799
ltoes 58.4606
1135
root 9.95439 17.2536 13.3189 364.988 -427.641 -352.287
lowerback -14.0442 -1.7862 -5.66594
upperback 2.82114 -1.87864 4.4711
thorax 11.407 -1.4893 7.74211
lowerneck -7.59713 0.672605 -0.972658
upperneck 20.7712 1.8016 -5.10781
head 7.68166 0.192948 -1.37271
rclavicle -3.65764e-014 3.02153e-014
rhumerus -54.463 -29.774 -72.6267
rradius 118.915
rwrist -16.4126
rhand -70.6207 42.4825
rfingers 7.12502
rthumb -42.1906 377.957
lclavicle -3.65764e-014 3.02153e-014
lhumerus -55.9531 -5.01436 106.424
lradius 123.043
lwrist 28.0178
lhand -50.5798 69.3405
lfingers 7.12502
lthumb -23.1455 -97.9701
rfemur -41.5676 -4.59029 19.2038
rtibia 38.481
rfoot -8.21523 -16.1654
rtoes 15.8656
lfemur -196.381 178.896 -191.629
ltibia 33.349
lfoot -12.2224 -14.8199
ltoes 57.0173
1136
root 10.1617 17.2282 13.3265 365.181 -427.17 -352.575
lowerback -13.9161 -1.77586 -5.93801
upperback 2.77817 -1.8284 4.54187
thorax 11.2889 -1.48162 7.99313
lowerneck -7.69411 0.584662 -1.12392
upperneck 20.6424 1.69103 -5.01517
head 7.6527 0.142217 -1.32474
rclavicle 1.59028e-015 4.77083e-014
rhumerus -53.8193 -29.0142 -73.4509
rradius 118.663
rwrist -14.925
rhand -70.6637 49.1052
rfingers 7.12502
rthumb -42.2309 384.593
lclavicle 1.59028e-015 4.77083e-014
lhumerus -56.395 -4.56124 106.083
lradius 123.499
lwrist 27.6003
lhand -50.5536 68.6346
lfingers 7.12502
lthumb -23.1204 -97.2673
rfemur -44.1965 -5.55378 20.1413
rtibia 43.2364
rfoot -7.47973 -13.1851
rtoes 11.3516
lfemur -195.672 178.514 -191.365
ltibia 31.115
lfoot -11.6114 -16.653
ltoes 55.9022
1137
root 10.3639 17.202 13.3216 365.043 -426.576 -352.539
lowerback -13.7511 -1.85034 -6.3982
upperback 2.75246 -1.85977 4.60411
thorax 11.1929 -1.52632 8.32608
lowerneck -7.77769 0.540461 -1.32563
upperneck 20.4937 1.64776 -4.92342
head 7.6164 0.120147 -1.2626
rclavicle -8.74653e-015 1.11319e-014
rhumerus -52.8823 -28.2671 -74.165
rradius 118.234
rwrist -14.0073
rhand -70.4315 54.9424
rfingers 7.12502
rthumb -42.0133 390.357
lclavicle -8.74653e-015 1.11319e-014
lhumerus -56.6675 -4.15753 105.833
lradius 123.853
lwrist 27.3187
lhand -50.5796 68.2866
lfingers 7.12502
lthumb -23.1453 -96.9162
rfemur -46.1957 -6.32137 20.8263
rtibia 46.563
rfoot -5.70956 -11.2929
rtoes 12.4186
lfemur -195.209 178.406 -191.293
ltibia 29.1927
lfoot -11.9127 -17.5887
ltoes 53.0409
1138
root 10.5585 17.178 13.3081 365.111 -425.935 -352.66
lowerback -13.7115 -1.91523 -6.81145
upperback 2.73524 -1.88494 4.69103
thorax 11.1792 -1.5701 8.6633
lowerneck -7.9574 0.426254 -1.6972
upperneck 20.4324 1.52058 -4.72685
head 7.62361 0.051298 -1.1459
rclavicle 2.54444e-014 -1.43125e-014
rhumerus -51.6245 -27.8378 -74.3897
rradius 117.214
rwrist -12.5852
rhand -70.4819 57.5226
rfingers 7.12502
rthumb -42.0606 392.953
lclavicle 2.54444e-014 -1.43125e-014
lhumerus -56.6458 -3.94938 105.735
lradius 123.956
lwrist 27.1808
lhand -50.6744 68.3065
lfingers 7.12502
lthumb -23.2363 -96.9246
rfemur -47.3876 -6.59959 21.4274
rtibia 48.1919
rfoot -3.69747 -10.541
rtoes 14.0114
lfemur -195.026 178.516 -191.197
ltibia 27.5308
lfoot -13.1076 -17.7294
ltoes 48.0628
1139
root 10.7509 17.1606 13.2879 365.201 -425.263 -352.775
lowerback -13.7293 -1.95054 -7.25284
upperback 2.76722 -1.86401 4.78974
thorax 11.2482 -1.60069 9.04485
lowerneck -8.20323 0.262651 -2.09025
upperneck 20.3837 1.33704 -4.54348
head 7.64705 -0.0476524 -1.03539
rclavicle -9.81996e-014 3.02153e-014
rhumerus -49.8779 -27.7837 -74.1002
rradius 115.517
rwrist -10.6937
rhand -70.9089 57.0591
rfingers 7.12502
rthumb -42.4605 392.625
lclavicle -9.81996e-014 3.02153e-014
lhumerus -56.1622 -3.91377 105.791
lradius 123.739
lwrist 27.0956
lhand -50.5677 67.7929
lfingers 7.12502
lthumb -23.1339 -96.4239
rfemur -47.6328 -6.18972 21.5442
rtibia 47.4752
rfoot -1.24175 -10.7784
rtoes 15.9213
lfemur -195.214 179.098 -191.24
ltibia 26.4305
lfoot -14.996 -17.3944
ltoes 42.1882
1140
root 10.9415 17.1526 13.2664 365.543 -424.701 -353.192
lowerback -13.7471 -1.90799 -7.52477
upperback 2.81934 -1.77517 4.93817
thorax 11.3188 -1.59173 9.40166
lowerneck -8.44954 0.0815765 -2.33185
upperneck 20.3862 1.13557 -4.50242
head 7.68956 -0.158496 -0.999648
rclavicle -3.37934e-014 -2.38542e-014
rhumerus -47.7161 -27.8576 -73.4133
rradius 113.329
rwrist -9.01184
rhand -71.3709 58.5128
rfingers 7.12502
rthumb -42.8929 394.229
lclavicle -3.37934e-014 -2.38542e-014
lhumerus -55.3353 -3.96662 105.97
lradius 123.255
lwrist 27.1051
lhand -50.8296 67.8889
lfingers 7.12502
lthumb -23.3851 -96.4882
rfemur -46.6923 -4.73419 21.197
rtibia 44.1249
rfoot 1.98355 -11.8614
rtoes 25.5229
lfemur -195.626 180.148 -191.241
ltibia 25.8217
lfoot -17.2386 -16.6615
ltoes 36.4495
1141
root 11.1191 17.1397 13.2493 365.624 -424.295 -353.478
lowerback -13.787 -1.76285 -7.78909
upperback 2.86457 -1.54288 5.04893
thorax 11.3573 -1.50987 9.74662
lowerneck -8.60552 -0.164915 -2.47149
upperneck 20.5067 0.824898 -4.46331
head 7.75383 -0.316895 -0.993082
rclavicle -5.56597e-015 7.95139e-015
rhumerus -45.5481 -28.1288 -72.229
rradius 110.805
rwrist -7.51952
rhand -71.7877 62.6168
rfingers 7.12502
rthumb -43.2826 398.472
lclavicle -5.56597e-015 7.95139e-015
lhumerus -54.6012 -4.1644 106.277
lradius 122.701
lwrist 26.9367
lhand -50.8891 67.7558
lfingers 7.12502
lthumb -23.4422 -96.3478
rfemur -44.5202 -2.19354 20.3424
rtibia 39.2434
rfoot 2.86764 -14.1215
rtoes 31.944
lfemur -195.823 181.269 -191.359
ltibia 25.3083
lfoot -19.1399 -15.7008
ltoes 30.6493
